<?xml version="1.0" standalone="no"?>
<!DOCTYPE svg PUBLIC "-//W3C//DTD SVG 20010904//EN"
 "http://www.w3.org/TR/2001/REC-SVG-20010904/DTD/svg10.dtd">
<svg version="1.0" xmlns="http://www.w3.org/2000/svg"
 width="320.000000pt" height="320.000000pt" viewBox="0 0 320.000000 320.000000"
 preserveAspectRatio="xMidYMid meet">

<g transform="translate(0.000000,320.000000) scale(0.100000,-0.100000)"
fill="#000000" stroke="none">
<path d="M0 1600 l0 -1600 1600 0 1600 0 0 1600 0 1600 -1600 0 -1600 0 0
-1600z m1626 1159 c32 -15 48 -32 65 -65 36 -76 14 -152 -59 -199 -37 -24 -40
-54 -17 -155 49 -209 164 -377 325 -475 l61 -37 26 23 c106 97 165 180 199
277 15 42 16 55 6 70 -31 43 -34 59 -21 88 27 56 109 36 109 -27 0 -32 -23
-59 -51 -59 -17 0 -19 -7 -19 -65 0 -120 52 -224 154 -306 34 -27 67 -47 74
-44 8 3 26 8 40 10 26 6 26 5 -3 -9 -16 -8 -23 -15 -15 -16 27 -3 -57 -28
-135 -41 -269 -43 -577 136 -718 416 -33 66 -67 178 -67 220 0 56 -17 48 -24
-10 -12 -105 -74 -251 -150 -351 -126 -168 -328 -266 -546 -266 -151 0 -269
37 -398 123 -39 27 -72 44 -72 39 0 -5 55 -120 123 -257 67 -136 145 -296 172
-355 28 -59 53 -107 56 -108 4 0 12 13 19 30 53 127 335 226 705 245 289 16
627 -54 852 -175 41 -22 83 -40 94 -40 16 0 30 21 63 92 29 64 44 87 49 75 3
-9 0 -23 -9 -31 -8 -9 -15 -19 -14 -23 0 -4 -7 -29 -15 -54 -17 -51 -43 -80
-71 -81 -11 0 -85 27 -166 61 -81 34 -203 76 -270 94 -120 31 -128 32 -333 32
-220 0 -272 -6 -445 -52 -208 -55 -330 -141 -330 -234 0 -43 27 -81 70 -99 62
-26 155 -7 424 85 138 47 292 94 341 105 172 38 406 21 504 -36 14 -8 17 -12
6 -8 -107 37 -157 46 -265 47 -177 2 -254 -19 -670 -177 -228 -86 -346 -97
-450 -40 -98 53 -111 76 -265 449 -59 143 -127 305 -151 360 l-45 100 -40 0
c-34 0 -46 6 -70 33 -48 54 -35 132 29 164 89 44 184 -68 126 -150 -19 -28
-16 -32 52 -77 72 -48 171 -88 200 -81 32 8 130 101 160 152 28 48 53 131 54
179 1 26 3 24 21 -22 26 -68 112 -186 170 -235 l47 -40 33 18 c195 100 341
326 365 562 l7 63 -41 34 c-22 20 -46 51 -52 71 -25 74 7 155 72 187 44 22 73
21 124 -4z m-721 -463 c21 -21 23 -29 15 -57 -11 -38 -25 -49 -62 -49 -29 0
-58 31 -58 63 0 22 43 67 65 67 9 0 27 -11 40 -24z m1745 -450 c0 -3 -4 -8
-10 -11 -5 -3 -10 -1 -10 4 0 6 5 11 10 11 6 0 10 -2 10 -4z m-50 -36 c-8 -5
-24 -9 -35 -9 -16 1 -16 2 5 9 35 11 48 11 30 0z m-46 -345 c-4 -8 -10 -15
-16 -15 -5 0 -7 -10 -3 -22 5 -20 4 -20 -5 -6 -8 13 -7 23 2 38 15 23 30 27
22 5z"/>
</g>
</svg>
